#!OML:ASF F:\VICON\USERDATA\INSTALL\rory3\rory3.ASF
:FULLY-SPECIFIED
:DEGREES
38
root -0.5621711224948367 17.70174578239746 8.898249952700414 3.3044942275449425 9.604405732849209 0.2878978981806686
lfemur -27.262270335103707 -9.64031120429181 -22.898993700249434
ltibia -21.355527870989242
lfoot -27.52890571125109 3.389112316897519
ltoes -39.60200132713374
rfemur 16.330180733119068 1.8958162737791115 30.16108058074158
rtibia 18.74594033249246
rfoot 49.95349120646864 -4.228630772834035
rtoes 15.802313239806416
lowerback 1.0 1.5361430662577824 4.7366198311947265
upperback -2.3325132263416855 3.052853111692194 -0.3508492320438865
thorax -9.987808952953053 0.7400852863036653 -0.6894314537782927
lowerneck -18.843967850845203 -6.245745515867036 -1.7068873729988128
upperneck 18.21992001431656 -7.93491535772691 1.5457281150324704
head 8.89502834023331 -3.650807520145836 -0.13517726384948126
lclavicle -6.798600020649704e-14 -4.1238963277584666e-14
lhumerus -67.2859600558227 -5.239991061845939 95.01139929654786
lradius 119.23785922099532
lwrist 36.9733258776703
lhand -36.24514424792376 -1.3065207977427153
lfingers nan
lthumb -9.513174329165356 28.50881119438012
rclavicle -7.171029049487777e-14 -4.58878963420412e-14
rhumerus -51.559237087309384 15.781791788027075 -106.89344065965075
rradius 138.82464137534254
rwrist -17.120332655962212
rhand -14.107222349609971 1.0
rfingers nan
rthumb 11.825816423135812 7.315736564362173
39
root -0.5505602258412302 17.759421110679245 10.05660780881946 3.4166087182359557 9.294545795184053 0.42300687641290624
lfemur -26.038641287631766 -9.556612214276907 -23.082860882229127
ltibia -24.11508359755883
lfoot -26.825410967445688 1.9917550102135042
ltoes -41.97370237962535
rfemur 15.772467671780664 2.3152535793160434 29.963823258837028
rtibia 18.330531653557742
rfoot 48.4038610712879 -4.596379723841934
rtoes 18.345247920751255
lowerback 1.0 1.5167450069280888 4.6897888457007575
upperback -2.500119396376014 3.1200221513928934 -0.4392777736376505
thorax -10.326055476053863 0.7555385050235484 -0.8935989786989772
lowerneck -18.805386128953145 -6.191151817248039 -1.6767216901592723
upperneck 18.511903551140705 -7.779828483624049 1.595692697980243
head 8.988400147782183 -3.6010385888920275 -0.11235837604245613
lclavicle -2.5882218243304848e-14 3.785859580626865e-15
lhumerus -67.49696636968812 -4.619677836139543 94.38728198997511
lradius 119.79512760817602
lwrist 38.56091061304389
lhand -38.873860519699996 0.8672506833740624
lfingers nan
lthumb -12.04929144481554 30.6469329630207
rclavicle -2.8578034150981474e-14 -2.9028040252432983e-16
rhumerus -52.417978028383494 15.440854523718848 -107.44520121995224
rradius 138.67207139629065
rwrist -19.874759863458863
rhand -14.055213587750124 1.0
rfingers nan
rthumb 12.172981103393287 23.42333086484406
40
root -0.5544965692317007 17.79963593291211 10.674983132858353 3.5542180519293836 8.953875335227586 0.4075521124101482
lfemur -25.073612836047886 -9.279838818849413 -23.145292449608334
ltibia -26.417491298231347
lfoot -25.57910190853268 0.010193117294152287
ltoes -41.982191870406744
rfemur 14.913750054008649 3.0069177444710933 30.20337762561958
rtibia 18.680619562486733
rfoot 47.80551548965873 -5.140635788039893
rtoes 29.91849258768154
lowerback 1.0 1.5087257054621819 4.529151447425862
upperback -2.581871130379352 3.1533784722798712 -0.4054314893506741
thorax -10.452359321467029 0.7946071107146583 -0.8971130520363996
lowerneck -18.708030244408096 -6.21479475410451 -1.7031058620422748
upperneck 18.15758684276208 -7.726047203033829 1.6696022915806383
head 8.909734973508964 -3.574658431678732 -0.06293283288242646
lclavicle 3.529664065328626e-14 -1.5813647612188138e-14
lhumerus -67.56959862829166 -4.203633819614348 93.85569256257745
lradius 120.28583157330824
lwrist 39.64610355995014
lhand -43.56106308094535 4.698195893079959
lfingers nan
lthumb -16.576419804189626 34.31906403480602
rclavicle 3.229920266180379e-14 -1.971169172786819e-14
rhumerus -52.89247695405856 15.37563746060799 -107.82257279246357
rradius 138.30678968245053
rwrist -20.564410524629622
rhand -16.972628253401147 1.0
rfingers nan
rthumb 9.182165790983808 9.337709997506156
41
root -0.5550090657594766 17.843041974532223 11.655489220618742 3.575404519675651 8.171404717474026 0.16129165766906128
lfemur -24.10589439665368 -8.567440103381156 -23.149506136069586
ltibia -28.128573854090867
lfoot -23.33127289053803 -2.5977728501907507
ltoes -38.18582634141968
rfemur 13.994042024155021 3.9464009649497136 30.688609839935527
rtibia 19.765817430295485
rfoot 46.21494114932698 -5.181711266049526
rtoes 38.47452341636721
lowerback 1.0 1.5833181684171087 4.491944449826355
upperback -2.55137735119074 3.3591615093988345 -0.21482014110789738
thorax -10.53285405234497 0.9021949509628003 -0.8289329760224592
lowerneck -19.512145426205315 -6.221681875866292 -1.8543325682820992
upperneck 18.264147771045547 -7.601815187563876 1.7990707991556132
head 9.072442172543393 -3.5403436706327636 0.011011930825933214
lclavicle -2.0641133801585104e-14 1.0925032614243753e-14
lhumerus -67.59460033767088 -3.746879921726908 93.3907901484358
lradius 121.01330476909675
lwrist 40.58991253032236
lhand -42.84545376692742 5.5893951051642805
lfingers nan
lthumb -15.918019771532911 35.27842599850541
rclavicle -2.3805044828332495e-14 7.30092951783888e-15
rhumerus -53.46782757903763 15.589093236480839 -108.82521645477976
rradius 137.82149490848013
rwrist -13.220281716302406
rhand -22.96200842485285 1.0
rfingers nan
rthumb 3.330891426149318 1.1512706455881538
42
root -0.538288207084953 17.904353155672315 12.166971950705708 3.77543235976016 7.526164725727335 0.019389820131186397
lfemur -23.216119250772685 -7.933227039735677 -23.346464877201598
ltibia -29.17319882810306
lfoot -20.337362793584216 -4.372101246824094
ltoes -33.28949894500255
rfemur 12.904061744286146 4.819731047993015 30.90680735209061
rtibia 21.521249448280763
rfoot 43.24255493708241 -4.671968447442957
rtoes 42.65311049855856
lowerback 1.0 1.6485016246541364 4.433151148584669
upperback -2.735264438025381 3.4991679644892253 -0.1814989872067001
thorax -10.998294556799557 0.9616788573017552 -0.7805181540611849
lowerneck -20.30036629755645 -6.172473488397406 -1.854344723067904
upperneck 18.570872821738988 -7.482912671184741 1.7555311262704447
head 9.270394917535071 -3.4656872193466617 0.013079320728005439
lclavicle -4.235406018969907e-14 -2.771325962054772e-14
lhumerus -67.67459800249435 -3.3251238926258146 92.91527617587684
lradius 121.8717392545546
lwrist 41.47667939105001
lhand -37.69528940323964 3.4398468633321437
lfingers nan
lthumb -10.881998799233024 33.2874233071732
rclavicle -4.57461066214335e-14 -3.1465574379393166e-14
rhumerus -54.12489256441818 15.242038814130348 -109.02036913651082
rradius 137.44823318064581
rwrist -19.463690318979353
rhand -21.880179751510447 1.0
rfingers nan
rthumb 4.394352298692177 -0.9705513380232746
43
root -0.5266982686671199 17.975093802801826 12.706382253712864 4.026443815797711 7.071495779352598 -0.0910741920137419
lfemur -22.20369283028219 -7.24490421689905 -23.745807988416935
ltibia -29.348140779664497
lfoot -18.521057271781856 -5.5385415041940504
ltoes -30.636413377859576
rfemur 11.664633484303241 5.415001624820563 31.00783964887383
rtibia 23.962086402420816
rfoot 40.502714329448835 -3.8719520876155724
rtoes 44.43052768449524
lowerback 1.0 1.6795595329645232 4.236507604060482
upperback -2.8311690083406384 3.5645315830360147 -0.07925300791938472
thorax -11.012103093060936 0.9929117376045911 -0.6250429141759891
lowerneck -20.47437821269677 -6.089025872650657 -1.6962604677831532
upperneck 18.201628961651494 -7.264734001448648 1.630004038990364
head 9.118761742355797 -3.349910046415383 -0.01362709013882879
lclavicle -8.217242072019585e-14 -2.851536064270923e-14
lhumerus -67.62237595535986 -2.9975130995888755 92.52368458990894
lradius 122.54699568667574
lwrist 41.76637854234336
lhand -33.679574190410214 1.9470992164296999
lfingers nan
lthumb -6.976060994013002 31.84831674039766
rclavicle -8.568209775943637e-14 -3.2475596103721724e-14
rhumerus -54.573662992065564 15.008287908431601 -109.03260459915192
rradius 137.02081474708956
rwrist -23.603238271648774
rhand -22.53430542163077 1.0
rfingers nan
rthumb 3.7731985002554755 -8.120443958907506
44
root -0.5193447088111038 18.03755449348273 12.968848300976315 4.196564127166895 6.053432735432163 -0.4648520538828358
lfemur -21.241671722233473 -6.478885847331697 -23.938208835658656
ltibia -28.992243992082614
lfoot -17.022790866287504 -5.662046855512935
ltoes -30.33130950870283
rfemur 10.400814593283105 6.171278499942441 31.154208240588133
rtibia 26.982330619106243
rfoot 39.85193339471165 -3.5700801476466473
rtoes 43.68632789282155
lowerback 1.0 1.7907699924525011 4.058796652975411
upperback -2.5563438694919522 3.7064180031920686 0.14208339656892188
thorax -10.06659901162007 1.0823315739211339 -0.49284907095426733
lowerneck -20.906524465611334 -5.969966903343072 -1.6542871228830107
upperneck 17.52669835307985 -7.013951577566647 1.6076333945057706
head 8.89685322443507 -3.2509903914952805 0.014593023024482288
lclavicle -3.635523351099573e-14 -4.60738115798357e-16
lhumerus -66.89276435999818 -2.6521521250920657 92.29435150564515
lradius 123.10638039945887
lwrist 41.90796204170631
lhand -31.055512586011123 1.1301504369844104
lfingers nan
lthumb -4.441014603057058 31.084756800248325
rclavicle -3.909768529820465e-14 -4.115126009114701e-15
rhumerus -54.63767831050304 14.8510182478381 -108.43291180860084
rradius 136.433733837829
rwrist -25.53564990604916
rhand -23.322135885985105 1.0
rfingers nan
rthumb 3.096378747669328 -9.965635081535323
